# xmcd CD database file
#
# Track frame offsets:
#	150
#	6651
#	21923
#	32784
#	44783
#	57957
#	69317
#	81816
#	96237
#	113660
#	126624
#	141254
#	156621
#	169570
#	182065
#
# Disc length: 2612 seconds
#
# Revision: 0
# Processed by: cddbd v1.5.2PL0 Copyright (c) Steve Scherf et al.
# Submitted via: CDex 1.51
#
DISCID=db0a320f
DTITLE=The Glenn Miller Memorial Orchestra - Best Of [CD1]
DYEAR=2006
DGENRE=Blues
TTITLE0=Moonlight Serenade
TTITLE1=American Patrol
TTITLE2=Sun Valley Jump
TTITLE3=Jersey Bounce
TTITLE4=Opus One
TTITLE5=Over there
TTITLE6=Serenade In Blue
TTITLE7=Chattanooga Choo Choo
TTITLE8=Perfidia
TTITLE9=At Last
TTITLE10=Tuxedo Junction
TTITLE11=In The Mood
TTITLE12=Pensylvannia 6-5000
TTITLE13=Adios
TTITLE14=Rhapsody In Blue
EXTD=YEAR: 2006
EXTT0=
EXTT1=
EXTT2=
EXTT3=
EXTT4=
EXTT5=
EXTT6=
EXTT7=
EXTT8=
EXTT9=
EXTT10=
EXTT11=
EXTT12=
EXTT13=
EXTT14=
PLAYORDER=
